DREAD 2009 DVDRip H264 PSP

Format                           : MPEG-4
Format profile                   : Base Media / Version 2
Codec ID                         : mp42
File size                        : 305 MiB
Duration                         : 1h 34mn
Overall bit rate                 : 451 Kbps
Encoded date                     : UTC 2010-03-28 22:52:55
Tagged date                      : UTC 2010-03-28 22:53:14
Writing application              : mp4creator 1.6.1d

Video
ID                               : 1
Format                           : AVC
Format/Info                      : Advanced Video Codec
Format profile                   : Baseline@L1.3
Format settings, CABAC           : No
Format settings, ReFrames        : 1 frame
Codec ID                         : avc1
Codec ID/Info                    : Advanced Video Coding
Duration                         : 1h 34mn
Bit rate mode                    : Variable
Bit rate                         : 387 Kbps
Width                            : 480 pixels
Height                           : 272 pixels
Display aspect ratio             : 16:9
Original display aspect ratio    : 16:9
Frame rate mode                  : Constant
Frame rate                       : 24.000 fps
Resolution                       : 24 bits
Colorimetry                      : 4:2:0
Scan type                        : Progressive
Bits/(Pixel*Frame)               : 0.124
Stream size                      : 261 MiB (86%)
Encoded date                     : UTC 2010-03-28 22:52:55
Tagged date                      : UTC 2010-03-28 22:53:11

Audio
ID                               : 2
Format                           : AAC
Format/Info                      : Advanced Audio Codec
Format version                   : Version 4
Format profile                   : LC
Format settings, SBR             : Yes
Format settings, PS              : No
Codec ID                         : 40
Duration                         : 1h 34mn
Bit rate mode                    : Variable
Bit rate                         : 62.7 Kbps
Maximum bit rate                 : 114 Kbps
Channel(s)                       : 2 channels
Channel positions                : L R
Sampling rate                    : 48.0 KHz
Resolution                       : 16 bits
Stream size                      : 42.3 MiB (14%)
Encoded date                     : UTC 2010-03-28 22:53:11
Tagged date                      : UTC 2010-03-28 22:53:14

The film tells the story of three students who decide to study people's fears for a video documentary college class. Initially they simply interview their subjects but then one of the students progresses to setting up situations where the subjects are forced to confront their fears.
 
http://www.imdb.com/title/tt1331307/

PLEASE SEED AND ENJOY THANKS

screens
 
http://img33.imageshack.us/img33/1781/dreadh264vicemp4thumbs2.jpg